<svg viewBox="574 301 220 191" height="50%" preserveAspectRatio="xMidYMid meet" version="1.1" xmlns="http://www.w3.org/2000/svg" xmlns:xlink="http://www.w3.org/1999/xlink">
    <g transform="translate(604.0500030517578 454.7047874249107) scale(1 1) rotate(0 0 0)">
        <text dy="0.5ex" dominant-baseline="text-after-edge" alignment-baseline="text-after-edge" font-family="Montserrat" font-size="32px" fill="#00ADEE">Satisware</text>
    </g>
    <g transform="translate(595 289.5) scale(1.5 1.5) rotate(0 0 0)">
        <g>
            <radialGradient id="SVGID_1_" cx="37.2603" cy="33.1064" r="78.444" gradientUnits="userSpaceOnUse">
                <stop offset="0" style="stop-color:#00ADEE"></stop>
                <stop offset="0.176" style="stop-color:#00A9EA"></stop>
                <stop offset="0.3557" style="stop-color:#009FDE"></stop>
                <stop offset="0.5371" style="stop-color:#008DC9"></stop>
                <stop offset="0.7198" style="stop-color:#0074AD"></stop>
                <stop offset="0.9017" style="stop-color:#005488"></stop>
                <stop offset="1" style="stop-color:#004071"></stop>
            </radialGradient>
            <path fill="url(#SVGID_1_)" d="M80.707,55.014c-0.371-3.229-3.082-5.745-6.41-5.745c-3.582,0-6.486,2.905-6.486,6.481   c0,3.586,2.904,6.486,6.486,6.486c1.24,0,2.391-0.359,3.375-0.969c3.49,1.547,5.824,5.025,5.824,8.939   c0,5.4-4.395,9.789-9.795,9.789H25.866c-5.396,0-9.788-4.389-9.788-9.789c0-0.41,0.058-0.807,0.11-1.209   c2.297-0.996,3.902-3.279,3.902-5.943c0-2.688-1.636-4.992-3.962-5.977c-0.019-0.236-0.05-0.463-0.05-0.699   c0-5.396,4.393-9.79,9.788-9.79c1.774,0,3.526,0.492,5.054,1.419c1.127,0.682,2.546,0.67,3.667-0.033   c1.119-0.708,1.737-1.981,1.603-3.292c-0.031-0.339-0.049-0.678-0.049-1.022c0-4.144,2.591-7.664,6.231-9.091   c1.183,1.291,2.875,2.118,4.767,2.118c3.581,0,6.485-2.908,6.485-6.485c0-3.582-2.904-6.49-6.485-6.49   c-2.667,0-4.953,1.613-5.952,3.913c-5.792,1.717-10.305,6.461-11.618,12.417c-1.21-0.277-2.451-0.418-3.702-0.418   c-9.232,0-16.751,7.515-16.751,16.755c0,0.643,0.043,1.283,0.12,1.916c-1.294,1.182-2.12,2.869-2.12,4.76   c0,1.924,0.856,3.637,2.19,4.828c-0.116,0.764-0.19,1.537-0.19,2.324c0,9.24,7.519,16.754,16.751,16.754h47.835   c9.24,0,16.76-7.514,16.76-16.754C90.461,63.584,86.564,57.703,80.707,55.014z M70.73,55.75c0-1.965,1.602-3.561,3.566-3.561   c1.969,0,3.564,1.596,3.564,3.561c0,1.975-1.596,3.57-3.564,3.57C72.332,59.32,70.73,57.725,70.73,55.75z M47.138,26.637   c1.965,0,3.563,1.597,3.563,3.565s-1.598,3.565-3.563,3.565c-1.975,0-3.567-1.596-3.567-3.565S45.164,26.637,47.138,26.637z    M13.603,66.621c-1.966,0-3.563-1.598-3.563-3.566c0-1.965,1.597-3.564,3.563-3.564c1.973,0,3.565,1.6,3.565,3.564   C17.168,65.023,15.576,66.621,13.603,66.621z"></path>
            <path fill="#929497" d="M71.293,22.145l-0.049-0.021c-2.842-1.261-5.658-2.577-8.521-3.797c-2.854-1.224-5.691-2.498-8.561-3.677   l-0.074-0.029c-0.389-0.153-0.836-0.124-1.217,0.116c-0.621,0.393-0.795,1.216-0.396,1.837c1.207,1.894,2.166,3.929,2.854,6.047   c0.688,2.113,0.984,4.347,0.922,6.581c-0.178,4.475-1.973,8.967-5.015,12.557c1.851-1.481,3.335-3.4,4.522-5.497   c1.195-2.097,1.994-4.455,2.305-6.907c0.33-2.444,0.111-4.963-0.477-7.366c-0.268-1.138-0.652-2.242-1.1-3.317   c1.695,0.765,3.383,1.522,5.078,2.292c2.523,1.158,5.088,2.242,7.645,3.35c-0.148,2.205-0.566,4.55-1.273,6.721   c-0.82,2.482-1.912,4.893-3.418,7.056c-1.463,2.192-3.316,4.111-5.393,5.795c-2.098,1.688-4.5,2.995-6.998,4.124   c2.68-0.621,5.27-1.7,7.676-3.14c2.42-1.431,4.559-3.358,6.354-5.567c1.762-2.237,3.205-4.748,4.178-7.437   c0.969-2.713,1.654-5.435,1.746-8.458C72.096,22.881,71.799,22.376,71.293,22.145z"></path>
            <path fill="#929497" d="M86.146,36.291l-0.078-0.033c-3.797-1.539-7.627-2.961-11.457-4.409l-0.066-0.025   c-0.754-0.244-1.572,0.169-1.813,0.927c-1.637,5.066-5.148,9.397-9.404,12.822c-4.303,3.399-9.25,6.147-14.54,8.165   c2.817-0.4,5.547-1.295,8.239-2.299c2.66-1.076,5.25-2.4,7.641-4.054c2.414-1.634,4.611-3.631,6.498-5.918   c1.559-1.919,2.832-4.099,3.775-6.407c2.801,1.018,5.6,2.027,8.414,2.999c-0.779,0.844-1.59,1.679-2.42,2.473   c-1.324,1.232-2.709,2.399-4.166,3.491c-2.904,2.18-6.08,4.033-9.57,5.352c3.689-0.583,7.268-2.001,10.525-3.917   c1.635-0.951,3.197-2.043,4.68-3.234c1.488-1.191,2.877-2.437,4.209-3.925c0.092-0.104,0.17-0.228,0.225-0.364   C87.102,37.287,86.791,36.555,86.146,36.291z"></path>
            <path fill="#929497" d="M85.703,11.122c-0.156-0.732-0.885-1.199-1.611-1.038L84,10.104c-3.094,0.678-6.176,1.444-9.24,2.25   l-0.074,0.017l-0.063,0.021c-0.707,0.223-1.1,0.976-0.877,1.683c0.777,2.469,1.006,5.121,0.807,7.797   c-0.189,2.684-0.828,5.381-1.625,8.094c1.641-2.308,2.865-4.955,3.535-7.797c0.555-2.386,0.633-4.922,0.225-7.408   c2.002-0.451,4-0.931,5.992-1.439c-0.111,0.682-0.244,1.369-0.4,2.035c-0.303,1.353-0.641,2.705-1.092,4.024   c-0.844,2.668-2.02,5.228-3.533,7.714c2.26-1.849,4.021-4.314,5.369-6.953c0.641-1.336,1.217-2.709,1.672-4.132   c0.434-1.439,0.811-2.833,1.029-4.409C85.746,11.449,85.74,11.283,85.703,11.122z"></path>
        </g>
    </g>
</svg>